{"title":"Beverly Hills Chihuahua 2 (2011)(DivX)(NL subs) RETAIL NTSC TBS","uid":6124363,"size":1567297437,"categoryP":"video","categoryS":"movies","magnet":"?xt=urn:btih:e66cf47eedbe008503081fa189f9a1fad831daab&amp;dn=Beverly+Hills+Chihuahua+2+%282011%29%28DivX%29%28NL+subs%29+RETAIL+NTSC+TBS&amp;tr=udp%3A%2F%2Ftracker.openbittorrent.com%3A80&amp;tr=udp%3A%2F%2Fopen.demonii.com%3A1337&amp;tr=udp%3A%2F%2Ftracker.coppersurfer.tk%3A6969&amp;tr=udp%3A%2F%2Fexodus.desync.com%3A6969","seeders":2,"leechers":0,"uploader":"BlackSam.","files":-1,"time":1295879075,"description":"Beverly Hills Chihuahua 2 (2011)(DivX)(NL subs) RETAIL NTSC\n\n*****RELEASE 8 februari 2011 op video*****\n\n\n\n\n\nVerenigde Staten\nKomedie\n\ngeregisseerd door Alex Zamm\nmet de stem van Odette Yustman, George Lopez en Christine Lakin\n\nDe schattige Chihuahua?s, Chloe en Papi zijn terug en klaar om samen aan hun nieuwe leven te beginnen. Met hun gezin van vijf pups genieten ze van het leven \nin het huis van tante Vivian die met haar nichtje, Rachel, op vakantie is. Rachel?s vriend Sam Cortez past op het huis wanneer hij erachter komt dat zijn \neigen huis van hem en zijn familie wordt ontnomen. Chloe en Papi weten dat ze actie moeten ondernemen. Met de hulp van hun pups en hun vriend de Duitse \nHerder zullen zij proberen om deze dag tot een goed einde te brengen!\n\nStoryline:\n\nThe cute Chihuahua? S, Chloe and Papi are back and ready to work on their new lives begin. With their family of five puppies they enjoy living in the house \nof Aunt Vivian with her niece, Rachel, is on vacation. Rachel?'s Friend Sam Cortez looks after the house when he learns that his house from him and his \nfamily enjoyed. Chloe and Papi know they must act. With the help of their friend and their pups German Shepherd they will try to make this day a successful \n\nconclusion!\n\n\nInfo\n\nSOURCE..........: Beverly Hills Chihuahua 2 2011 REPACK DVDRiP AC3 XViD-TiMPE\nSIZE............: 1.45GB\nFORM............: AVI\nVIDEO CODEC.....: XVID \nBITRATE.........: 2106 Kbit/s\nWIDTH &amp; HEIGHT..: 720 X 384\nFRAMES/S........: 23.00 Fps\nAUDIO...........: English\nAUDIO CODE......: AC3\nBITRATE.........: 384kbps\nCHANNELS........: 6\nSAMPLING........: 48.0 kHz\nSubtitles.......: Dutch srt\nVertaling.......: door Paul THE MAStER&amp;Goff\nCategorie.......: Beeld \nFormaat.........: DivX \nBron............: Retail\nOndertitels.....: Nederlands (extern)\nThanks..........: Hannes3  \n \n  \n \n &lt;a href=&quot;\nhttp://www.moviemeter.nl/film/72493&quot; rel=&quot;nofollow&quot; target=&quot;_NEW&quot;&gt;\nhttp://www.moviemeter.nl/film/72493&lt;/a&gt;   &lt;a href=&quot;\nhttp://www.imdb.com/title/tt1482393&quot; rel=&quot;nofollow&quot; target=&quot;_NEW&quot;&gt;\nhttp://www.imdb.com/title/tt1482393&lt;/a&gt; \n\nGeneral\n\nFormat                           : AVI\nFormat/Info                      : Audio Video Interleave\nFile size                        : 1.46 GiB\nDuration                         : 1h 23mn\nOverall bit rate                 : 2 490 Kbps\nWriting application              : VirtualDubMod 1.5.10.2 (build 2542/release)\nWriting library                  : VirtualDubMod build 2542/release\n\nVideo\nID                               : 0\nFormat                           : MPEG-4 Visual\nFormat profile                   : Advanced Simple@L5\nFormat settings, BVOP            : Yes\nFormat settings, QPel            : No\nFormat settings, GMC             : No warppoints\nFormat settings, Matrix          : Custom\nMuxing mode                      : Packed bitstream\nCodec ID                         : XVID\nCodec ID/Hint                    : XviD\nDuration                         : 1h 23mn\nBit rate                         : 2 097 Kbps\nWidth                            : 720 pixels\nHeight                           : 384 pixels\nDisplay aspect ratio             : 1.875\nFrame rate                       : 23.976 fps\nColor space                      : YUV\nChroma subsampling               : 4:2:0\nBit depth                        : 8 bits\nScan type                        : Progressive\nBits/(Pixel*Frame)               : 0.316\nStream size                      : 1.23 GiB (84%)\nWriting library                  : XviD 1.2.1 (UTC 2008-12-04)\n\nAudio\nID                               : 1\nFormat                           : AC-3\nFormat/Info                      : Audio Coding 3\nMode extension                   : CM (complete main)\nCodec ID                         : 2000\nDuration                         : 1h 23mn\nBit rate mode                    : Constant\nBit rate                         : 384 Kbps\nChannel(s)                       : 6 channels\nChannel positions                : Front: L C R, Side: L R, LFE\nSampling rate                    : 48.0 KHz\nBit depth                        : 16 bits\nVideo delay                      : 1s 0ms\nStream size                      : 230 MiB (15%)\nAlignment                        : Split accross interleaves\nInterleave, duration             : 42 ms (1.00 video frame)\nInterleave, preload duration     : 512 ms\n\n\n\nBlack-Sam ","torrent":{"xt":"urn:btih:e66cf47eedbe008503081fa189f9a1fad831daab","amp;dn":"Beverly+Hills+Chihuahua+2+%282011%29%28DivX%29%28NL+subs%29+RETAIL+NTSC+TBS","amp;tr":["udp%3A%2F%2Ftracker.openbittorrent.com%3A80","udp%3A%2F%2Fopen.demonii.com%3A1337","udp%3A%2F%2Ftracker.coppersurfer.tk%3A6969","udp%3A%2F%2Fexodus.desync.com%3A6969"],"infoHash":"e66cf47eedbe008503081fa189f9a1fad831daab","infoHashBuffer":{"type":"Buffer","data":[230,108,244,126,237,190,0,133,3,8,31,161,137,249,161,250,216,49,218,171]},"announce":[],"urlList":[]}}